<?xml version="1.0" encoding="utf-8"?>
<!-- Generator: Adobe Illustrator 24.1.2, SVG Export Plug-In . SVG Version: 6.00 Build 0)  -->
<svg version="1.1" id="Layer_1" xmlns="http://www.w3.org/2000/svg" xmlns:xlink="http://www.w3.org/1999/xlink" x="0px" y="0px"
	 viewBox="0 0 700 768" style="enable-background:new 0 0 700 768;" xml:space="preserve">
<style type="text/css">
	.st0{fill:url(#SVGID_1_);}
	.st1{fill:url(#SVGID_2_);}
	.st2{fill:url(#SVGID_3_);}
	.st3{fill:url(#SVGID_4_);}
	.st4{fill:url(#SVGID_5_);}
</style>
<linearGradient id="SVGID_1_" gradientUnits="userSpaceOnUse" x1="523.9549" y1="634.8598" x2="668.698" y2="640.1205">
	<stop  offset="0" style="stop-color:#4D4D4D"/>
	<stop  offset="0.6167" style="stop-color:#BE2554"/>
	<stop  offset="1" style="stop-color:#FF0E58"/>
</linearGradient>
<path class="st0" d="M571.1,610.2c20.3-1.3,23.5-26.6,42.4-30.4c20.1-4,50.5,18,54.9,47.1c5.1,34-28.6,56.6-30.7,57.9
	c-35.6,23-93.3,10.1-109-22.4c-11-22.8-1.8-56.4,12.4-60.8C550.9,598.4,556.5,611.1,571.1,610.2z"/>
<linearGradient id="SVGID_2_" gradientUnits="userSpaceOnUse" x1="201.4815" y1="335.5742" x2="272.8091" y2="338.1666">
	<stop  offset="0" style="stop-color:#4D4D4D"/>
	<stop  offset="0.6167" style="stop-color:#BE2554"/>
	<stop  offset="1" style="stop-color:#FF0E58"/>
</linearGradient>
<path class="st1" d="M211.6,319.7c5.6-19,18.3-30.9,31.4-29.9c17.4,1.3,30.8,25.2,29.8,49c-1,25.5-18,39.7-29.8,43.6
	c-14.2,4.7-34.7-0.9-40.5-21.4c-3.5-12.6,0-25.5,1.6-30.6"/>
<linearGradient id="SVGID_3_" gradientUnits="userSpaceOnUse" x1="384.5379" y1="206.4949" x2="597.0479" y2="214.2186">
	<stop  offset="0" style="stop-color:#4D4D4D"/>
	<stop  offset="0.6167" style="stop-color:#BE2554"/>
	<stop  offset="1" style="stop-color:#FF0E58"/>
</linearGradient>
<path class="st2" d="M569.6,229.3c4.5-7.7,12.7-24,13.2-46.1c0.2-8.2-0.4-28.6-10.2-44.9c-20.2-33.5-76.7-44.5-118-28
	c-51.5,20.6-86.1,86.8-63,143c17,41.3,60.4,65.3,102,65c38.7-0.3,87.8-21.8,100-66c8.9-32.2-6-60.8-10.8-69.1"/>
<linearGradient id="SVGID_4_" gradientUnits="userSpaceOnUse" x1="113.6023" y1="521.8113" x2="325.7157" y2="529.5205">
	<stop  offset="0" style="stop-color:#4D4D4D"/>
	<stop  offset="0.6167" style="stop-color:#BE2554"/>
	<stop  offset="1" style="stop-color:#FF0E58"/>
</linearGradient>
<path class="st3" d="M236.3,476.7c-28.5,39.2-104.9,7.3-120,33c-11.9,20.3,17.7,70.6,61,89c44.6,18.9,94.7,0.1,122-30
	c6.6-7.3,34.8-38.3,25-73c-9.6-33.7-51-56.6-71-47C242.9,453.7,245.4,464.1,236.3,476.7z"/>
<linearGradient id="SVGID_5_" gradientUnits="userSpaceOnUse" x1="132.8422" y1="118.1749" x2="269.6795" y2="123.1482">
	<stop  offset="0" style="stop-color:#4D4D4D"/>
	<stop  offset="0.6167" style="stop-color:#BE2554"/>
	<stop  offset="1" style="stop-color:#FF0E58"/>
</linearGradient>
<path class="st4" d="M151,95c-4.5,4.7-14.9,16.6-18,35c-3.2,19.2,1.5,44.4,16,54c33.1,21.9,120.3-18.8,121-70
	c0.3-25.7-21-58.7-53-63c-27.6-3.7-48.6,15.8-52,19"/>
</svg>
