<?xml version="1.0" encoding="utf-8"?>
<!-- Generator: Adobe Illustrator 24.1.2, SVG Export Plug-In . SVG Version: 6.00 Build 0)  -->
<svg version="1.1" id="Layer_1" xmlns="http://www.w3.org/2000/svg" xmlns:xlink="http://www.w3.org/1999/xlink" x="0px" y="0px"
	 viewBox="0 0 700 768" style="enable-background:new 0 0 700 768;" xml:space="preserve">
<style type="text/css">
	.st0{fill:url(#SVGID_1_);}
	.st1{fill:url(#SVGID_2_);}
</style>
<linearGradient id="SVGID_1_" gradientUnits="userSpaceOnUse" x1="523.9549" y1="700.5566" x2="668.698" y2="705.8173">
	<stop  offset="0" style="stop-color:#4D4D4D"/>
	<stop  offset="0.6167" style="stop-color:#BE2554"/>
	<stop  offset="1" style="stop-color:#FF0E58"/>
</linearGradient>
<path class="st0" d="M571.1,675.9c20.3-1.3,23.5-26.6,42.4-30.4c20.1-4,50.5,18,54.9,47.1c5.1,34-28.6,56.6-30.7,57.9
	c-35.6,23-93.3,10.1-109-22.4c-11-22.8-1.8-56.4,12.4-60.8C550.9,664.1,556.5,676.8,571.1,675.9z"/>
<linearGradient id="SVGID_2_" gradientUnits="userSpaceOnUse" x1="6.466" y1="321.9765" x2="77.7937" y2="324.5689">
	<stop  offset="0" style="stop-color:#4D4D4D"/>
	<stop  offset="0.6167" style="stop-color:#BE2554"/>
	<stop  offset="1" style="stop-color:#FF0E58"/>
</linearGradient>
<path class="st1" d="M16.6,306.1c5.6-19,18.3-30.9,31.4-29.9c17.4,1.3,30.8,25.2,29.8,49c-1,25.5-18,39.7-29.8,43.6
	c-14.2,4.7-34.7-0.9-40.5-21.4c-3.5-12.6,0-25.5,1.6-30.6"/>
</svg>
