<?xml version="1.0" encoding="utf-8"?>
<!-- Generator: Adobe Illustrator 24.1.2, SVG Export Plug-In . SVG Version: 6.00 Build 0)  -->
<svg version="1.1" id="Layer_1" xmlns="http://www.w3.org/2000/svg" xmlns:xlink="http://www.w3.org/1999/xlink" x="0px" y="0px"
	 viewBox="0 0 1366 768" style="enable-background:new 0 0 1366 768;" xml:space="preserve">
<style type="text/css">
	.st0{fill:url(#SVGID_1_);}
	.st1{fill:url(#SVGID_2_);}
	.st2{fill:url(#SVGID_3_);}
	.st3{fill:none;}
	.st4{fill:url(#SVGID_4_);}
	.st5{fill:url(#SVGID_5_);}
	.st6{fill:url(#SVGID_6_);}
	.st7{fill:url(#SVGID_7_);}
</style>
<linearGradient id="SVGID_1_" gradientUnits="userSpaceOnUse" x1="502" y1="679" x2="502" y2="679">
	<stop  offset="0" style="stop-color:#4D4D4D"/>
	<stop  offset="0.6167" style="stop-color:#BE2554"/>
	<stop  offset="1" style="stop-color:#FF0E58"/>
</linearGradient>
<path class="st0" d="M502,679"/>
<linearGradient id="SVGID_2_" gradientUnits="userSpaceOnUse" x1="1011" y1="385" x2="1011" y2="385">
	<stop  offset="0" style="stop-color:#4D4D4D"/>
	<stop  offset="0.6167" style="stop-color:#BE2554"/>
	<stop  offset="1" style="stop-color:#FF0E58"/>
</linearGradient>
<path class="st1" d="M1011,385"/>
<linearGradient id="SVGID_3_" gradientUnits="userSpaceOnUse" x1="657" y1="229" x2="657" y2="229">
	<stop  offset="0" style="stop-color:#4D4D4D"/>
	<stop  offset="0.6167" style="stop-color:#BE2554"/>
	<stop  offset="1" style="stop-color:#FF0E58"/>
</linearGradient>
<path class="st2" d="M657,229"/>
<rect x="649" y="46" class="st3" width="402" height="18"/>
<g>
	
		<image style="overflow:visible;opacity:0.75;" width="681" height="652" xlink:href="FE7B14C2.png"  transform="matrix(1 0 0 1 369.0987 58.3973)">
	</image>
	<g>
		<linearGradient id="SVGID_4_" gradientUnits="userSpaceOnUse" x1="377.6768" y1="363.0753" x2="1023.6315" y2="386.5525">
			<stop  offset="0" style="stop-color:#4D4D4D"/>
			<stop  offset="0.6167" style="stop-color:#BE2554"/>
			<stop  offset="1" style="stop-color:#FF0E58"/>
		</linearGradient>
		<path class="st4" d="M624.1,219.4c42.3-17.5,28.3-76.2,66-115c54.1-55.6,196.3-51.5,275,30c46.7,48.4,82.5,135.9,50,190
			c-42.3,70.5-175.4,42.7-188,94c-8.8,35.8,54.5,55.9,60,117c5,56.3-41.6,120.4-97,143c-77.1,31.5-159.1-22.2-267-93
			c-81-53.2-104.7-91-115-110c-13.3-24.7-43.1-79.9-25-143c20.4-71,93.1-122.3,156-123C581,208.9,596,231,624.1,219.4z"/>
	</g>
</g>
<g>
	
		<image style="overflow:visible;opacity:0.75;" width="394" height="383" xlink:href="FE7B14C5.png"  transform="matrix(1 0 0 1 695.0401 403.6988)">
	</image>
	<g>
		<linearGradient id="SVGID_5_" gradientUnits="userSpaceOnUse" x1="701.6036" y1="582.3765" x2="1071.1221" y2="595.8065">
			<stop  offset="0" style="stop-color:#4D4D4D"/>
			<stop  offset="0.6167" style="stop-color:#BE2554"/>
			<stop  offset="1" style="stop-color:#FF0E58"/>
		</linearGradient>
		<path class="st5" d="M826.9,515.6c-36.3,23.8-83-19.5-110.5,4.2c-28.2,24.3-5.1,92.2-1.7,102.3c17.5,51.3,53.7,80.4,69,92.3
			c26.1,20.4,86.1,67.2,160.4,49.9c67.3-15.7,123.2-78.7,126.3-148c2.5-56.3-30.8-96.3-52.4-122.2c-39-46.8-111.2-99-147.1-78.1
			C839.6,434,863,492,826.9,515.6z"/>
	</g>
</g>
<g>
	
		<image style="overflow:visible;opacity:0.75;" width="354" height="311" xlink:href="FE7B14C7.png"  transform="matrix(1 0 0 1 309.5082 135.1669)">
	</image>
	<g>
		<linearGradient id="SVGID_6_" gradientUnits="userSpaceOnUse" x1="319.6823" y1="278.9032" x2="639.2997" y2="290.5196">
			<stop  offset="0" style="stop-color:#4D4D4D"/>
			<stop  offset="0.6167" style="stop-color:#BE2554"/>
			<stop  offset="1" style="stop-color:#FF0E58"/>
		</linearGradient>
		<path class="st6" d="M381.5,165.2c-4.7,6.3-10.9,16-15,29c-7.6,24.1-0.5,36-3,55c-4.9,38.2-39.8,40.7-45,72
			c-5.5,33.6,28.3,69.5,56,86c54.3,32.3,116.4,8.8,129,4c93.3-35.4,163.2-154.6,129-215c-27-47.6-114.3-50.8-146-52
			c-37.8-1.4-68.8,5-89.3,10.6"/>
	</g>
</g>
<g>
	
		<image style="overflow:visible;opacity:0.75;" width="264" height="341" xlink:href="FE7B14C4.png"  transform="matrix(1 0 0 1 386.5082 425.1669)">
	</image>
	<g>
		<linearGradient id="SVGID_7_" gradientUnits="userSpaceOnUse" x1="395.819" y1="584.3055" x2="626.4227" y2="592.6868">
			<stop  offset="0" style="stop-color:#4D4D4D"/>
			<stop  offset="0.6167" style="stop-color:#BE2554"/>
			<stop  offset="1" style="stop-color:#FF0E58"/>
		</linearGradient>
		<path class="st7" d="M519.5,512.2c-8.7-6.2-32.8-21.7-60-16c-50.7,10.6-62.3,84.4-63,89c-9.7,67.2,36.1,150.6,99,158
			c31.1,3.7,72.8-10.5,83-38c14.5-39-43.6-80.2-27-110c13.1-23.6,54.5-7.3,71-33c16.6-25.9-5-73.9-34-100c-10.5-9.4-41.1-36.9-78-26
			c-25.5,7.6-44.9,30.8-51,60"/>
	</g>
</g>
</svg>
