<?xml version="1.0" encoding="utf-8"?>
<!-- Generator: Adobe Illustrator 24.1.2, SVG Export Plug-In . SVG Version: 6.00 Build 0)  -->
<svg version="1.1" id="Layer_1" xmlns="http://www.w3.org/2000/svg" xmlns:xlink="http://www.w3.org/1999/xlink" x="0px" y="0px"
	 viewBox="0 0 1366 768" style="enable-background:new 0 0 1366 768;" xml:space="preserve">
<style type="text/css">
	.st0{fill:url(#SVGID_1_);}
	.st1{fill:url(#SVGID_2_);}
	.st2{fill:url(#SVGID_3_);}
	.st3{fill:url(#SVGID_4_);}
	.st4{fill:url(#SVGID_5_);}
	.st5{fill:none;}
	.st6{fill:url(#SVGID_6_);}
</style>
<g>
	
		<image style="overflow:visible;opacity:0.75;enable-background:new    ;" width="758" height="524" xlink:href="FE7B14C1.png"  transform="matrix(0.9991 0 0 0.9991 62.6171 234.2338)">
	</image>
	<g>
		<linearGradient id="SVGID_1_" gradientUnits="userSpaceOnUse" x1="71.159" y1="471.2337" x2="796.4514" y2="497.5944">
			<stop  offset="0" style="stop-color:#4D4D4D"/>
			<stop  offset="0.6167" style="stop-color:#BE2554"/>
			<stop  offset="1" style="stop-color:#FF0E58"/>
		</linearGradient>
		<path class="st0" d="M596.5,417c-120.6-123.2-190-133.7-231.7-117.4c-45.1,17.6-55.8,65.6-118.5,79.9c-58.4,13.3-85-20-124.6,4.2
			c-35.2,21.5-60,75.8-47.1,109.9c17,45,95.6,44.5,96.5,76.6c0.2,9-5.8,9.9-10.6,25c-8.7,27.5-0.4,61.8,15.2,83.3
			c28.4,39.1,87.2,44.8,119.3,20.8c38.2-28.6,26.6-90.4,54.7-99.9c15.5-5.3,27.3,13.5,69.9,49.1c31.9,26.7,63.7,48.8,79.8,58.3
			c6.8,4,96.5,54.8,181.6,10.8c82.8-42.8,102.7-145,108.7-175.7c5.6-28.7,19.4-99.6-16-168.2c-28.4-55.1-73.2-78.7-108.7-97.4
			c-64.7-34.1-120.8-33.6-161.1-33.3c-45.3,0.4-95.5,1.6-127.6,40c-5.4,6.4-9.1,12.4-11.4,16.6"/>
	</g>
</g>
<linearGradient id="SVGID_2_" gradientUnits="userSpaceOnUse" x1="502" y1="679" x2="502" y2="679">
	<stop  offset="0" style="stop-color:#4D4D4D"/>
	<stop  offset="0.6167" style="stop-color:#BE2554"/>
	<stop  offset="1" style="stop-color:#FF0E58"/>
</linearGradient>
<path class="st1" d="M502,679"/>
<linearGradient id="SVGID_3_" gradientUnits="userSpaceOnUse" x1="1011" y1="385" x2="1011" y2="385">
	<stop  offset="0" style="stop-color:#4D4D4D"/>
	<stop  offset="0.6167" style="stop-color:#BE2554"/>
	<stop  offset="1" style="stop-color:#FF0E58"/>
</linearGradient>
<path class="st2" d="M1011,385"/>
<linearGradient id="SVGID_4_" gradientUnits="userSpaceOnUse" x1="657" y1="229" x2="657" y2="229">
	<stop  offset="0" style="stop-color:#4D4D4D"/>
	<stop  offset="0.6167" style="stop-color:#BE2554"/>
	<stop  offset="1" style="stop-color:#FF0E58"/>
</linearGradient>
<path class="st3" d="M657,229"/>
<g>
	
		<image style="overflow:visible;opacity:0.75;enable-background:new    ;" width="733" height="666" xlink:href="FE7B14C3.png"  transform="matrix(1 0 0 1 625 64)">
	</image>
	<g>
		<linearGradient id="SVGID_5_" gradientUnits="userSpaceOnUse" x1="632.5276" y1="375.132" x2="1338.7806" y2="400.8006">
			<stop  offset="0" style="stop-color:#4D4D4D"/>
			<stop  offset="0.6167" style="stop-color:#BE2554"/>
			<stop  offset="1" style="stop-color:#FF0E58"/>
		</linearGradient>
		<path class="st4" d="M1018,177c10.4-12.5,29.3-32.1,58.6-47.1c8.5-4.4,43.7-21.7,85.4-20.9c67,1.3,144.9,49.4,167,130
			c15.6,56.9,4,132.5-41,165c-39.5,28.6-79.7,5.8-128,46c-6.9,5.8-43.9,37.7-36,61c9.8,28.7,75.3,7.1,118,50
			c23.8,23.8,38.2,65.3,24,98c-18,41.3-74.6,52.1-111,47c-54.5-7.6-95-55.1-110-96c-10.5-28.5-3.6-40.5-16-51
			c-26.9-22.8-74.3,20.6-150,30c-14.4,1.8-114.5,12.8-182-50c-54.6-50.8-59.3-123.3-62-166c-2.2-33.8-5.8-107.8,42-180
			C740.5,97.1,845.3,78.9,864,76c114.6-17.8,198,42.7,213,54"/>
	</g>
</g>
<rect x="649" y="46" class="st5" width="402" height="18"/>
<g>
	
		<image style="overflow:visible;opacity:0.75;enable-background:new    ;" width="399" height="337" xlink:href="FE7B14C6.png"  transform="matrix(0.9985 0 0 0.9985 207.7843 46.2463)">
	</image>
	<g>
		<linearGradient id="SVGID_6_" gradientUnits="userSpaceOnUse" x1="200.5425" y1="104.2075" x2="599.5424" y2="331.2074">
			<stop  offset="0" style="stop-color:#FF0E58"/>
			<stop  offset="0.2171" style="stop-color:#DD1A56"/>
			<stop  offset="0.6936" style="stop-color:#873851"/>
			<stop  offset="1" style="stop-color:#4D4D4D"/>
		</linearGradient>
		<path class="st6" d="M357.6,58.5c0.3-0.3,0.8-0.7,1.5-1.1c3.7-2.3,11.6-4.1,40-1.6c17.8,1.6,26.7,2.4,37,4.7
			c7,1.6,29,6.9,54.5,21.4c11.5,6.5,26.6,15.2,41.9,31.5c12.2,13,20.9,22.3,24,37c2.8,13.3-2.3,15,0,40c1.5,16.8,4.8,26.7,6,30
			c2.3,6.5,3.5,7.8,8.9,19.8c7.4,16.4,11.7,24.5,12,29.5c1.2,20.3-11,35.4-19.8,46c-6.2,7.5-30.5,34.9-70.5,42.5
			c-22.8,4.4-47,1.6-83.3-2.6c-3.3-0.4-9.8-1.2-18.9-1.7c-23.2-1.4-40.1,0.1-43.8,0.3c-22.9,1.5-79.4-11-110-55
			c-30.7-44.2-18.7-96.5-14.6-114.6c11.3-49.5,41.8-78.6,51.6-87.7c22.2-20.6,44.2-28.3,66.2-36.4c10.6-3.9,20.3-4.4,27.2-5.1"/>
	</g>
</g>
</svg>
