<?xml version="1.0" standalone="no"?>
<!DOCTYPE svg PUBLIC "-//W3C//DTD SVG 20010904//EN"
 "http://www.w3.org/TR/2001/REC-SVG-20010904/DTD/svg10.dtd">
<svg version="1.0" xmlns="http://www.w3.org/2000/svg"
 width="500.000000pt" height="500.000000pt" viewBox="0 0 500.000000 500.000000"
 preserveAspectRatio="xMidYMid meet">
<metadata>
Created by potrace 1.11, written by Peter Selinger 2001-2013
</metadata>
<g transform="translate(0.000000,500.000000) scale(0.100000,-0.100000)"
fill="#000000" stroke="none">
<path d="M2213 3900 c-49 -11 -117 -55 -147 -94 -86 -114 -71 -267 37 -362
141 -124 363 -61 423 119 62 188 -119 384 -313 337z"/>
<path d="M830 3124 c-195 -51 -363 -208 -435 -407 -49 -133 -56 -316 -20 -458
45 -173 187 -352 335 -421 41 -20 96 -41 122 -47 184 -44 434 -9 545 76 l46
35 -5 -94 c-6 -118 -32 -176 -104 -230 -68 -52 -132 -72 -229 -71 -134 2 -258
56 -312 135 -10 16 -21 27 -24 25 -81 -33 -359 -175 -359 -183 0 -27 104 -165
153 -204 69 -56 172 -107 266 -132 99 -26 366 -36 479 -18 231 37 422 161 506
328 73 144 71 122 71 927 l0 720 -222 3 -222 2 -3 -61 -3 -61 -40 32 c-56 45
-139 85 -216 104 -81 20 -253 20 -329 0z m403 -380 c61 -20 138 -91 168 -151
32 -67 33 -197 3 -264 -31 -66 -78 -114 -141 -145 -46 -23 -68 -28 -132 -27
-133 1 -218 49 -270 155 -27 52 -31 72 -31 138 0 88 11 127 52 188 71 104 223
150 351 106z"/>
<path d="M3352 3116 c-70 -26 -124 -59 -182 -112 l-39 -35 -3 68 -3 68 -222 3
-223 2 0 -650 0 -650 225 0 225 0 0 393 c0 358 2 395 19 432 21 47 98 121 147
141 43 18 130 20 178 4 45 -15 119 -96 134 -148 8 -27 12 -157 12 -431 l0
-391 225 0 225 0 0 463 c0 496 -2 512 -53 613 -39 76 -107 138 -202 184 -151
73 -339 92 -463 46z"/>
<path d="M2047 3103 c-4 -3 -7 -296 -7 -650 l0 -643 225 0 225 0 0 650 0 650
-218 0 c-120 0 -222 -3 -225 -7z"/>
<path d="M4413 2334 c-62 -23 -136 -94 -163 -156 -63 -145 -3 -304 143 -380
58 -30 173 -31 238 -1 130 59 199 214 158 353 -18 58 -78 130 -138 163 -65 37
-170 46 -238 21z"/>
</g>
</svg>
