<?xml version="1.0" encoding="utf-8"?>
<!-- Generator: Adobe Illustrator 24.1.2, SVG Export Plug-In . SVG Version: 6.00 Build 0)  -->
<svg version="1.1" id="Layer_1" xmlns="http://www.w3.org/2000/svg" xmlns:xlink="http://www.w3.org/1999/xlink" x="0px" y="0px"
	 viewBox="0 0 700 768" style="enable-background:new 0 0 700 768;" xml:space="preserve">
<style type="text/css">
	.st0{fill:url(#SVGID_3_);}
	.st1{fill:url(#SVGID_4_);}
	.st2{fill:url(#SVGID_5_);}
</style>
<g>
	
		<image style="overflow:visible;opacity:0.75;" width="688" height="765" xlink:href="10F8C747.png"  transform="matrix(1 0 0 1 2.595 -1.405)">
	</image>
	<g>
		<g>
			<defs>
				<path id="SVGID_1_" d="M37.7,221.1c5.4-21.4-2.4-28.2-5.3-58.8c-2-21.6-7-74.9,25.4-114.5c21.7-26.6,50.7-35.3,57.2-37.1
					c31.2-8.7,56.9-1,87.9,8.3c16.5,4.9,56.5,17.3,97.4,48.5c25.1,19.1,32.7,31.7,58.2,40.2c18.7,6.3,35,6.3,52.9,6.2
					c36.2-0.2,49.6-7.4,76.2-10.3c8.9-1,55.8-6.2,98.5,13.4c37.8,17.3,86.3,60.4,82.6,105.3c-4,48-63.8,48.4-78.3,110.4
					c-7.4,31.6-2.5,76.7,20.1,111.4c14,21.4,25.9,25.4,32.8,48.5c1.6,5.4,12.8,44.9-8.5,72.2c-13.7,17.5-29.7,16-43.4,39.2
					c-4.2,7.2-9.8,17-7.4,27.9c1.5,6.6,5,9.4,5.3,16.5c0.4,9.3-5,16.3-7.4,19.6c-15.2,21.5-8.1,39.9-18,54.7
					c-12.2,18.3-41.4,17.6-98.5,17.5c-120-0.1-85.4,3.3-120.7,1c-140.4-8.9-210.6-13.4-247.7-44.4c-40.2-33.6-69.1-90.6-66.7-144.5
					c2.3-53.3,33.3-59.9,26.5-107.3c-6.4-44.7-37-60.2-44.5-122.8c-3-25.2,0-39.6,1.1-44.4C19.5,251.2,32,243.9,37.7,221.1z"/>
			</defs>
			<clipPath id="SVGID_2_">
				<use xlink:href="#SVGID_1_"  style="overflow:visible;"/>
			</clipPath>
			<g transform="matrix(1 0 0 1 0 0)" style="clip-path:url(#SVGID_2_);">
				
					<image style="overflow:visible;" width="1714" height="2000" xlink:href="../../Downloads/resume_letter_ report_article_ book cover_album cover_ business card_ flyer_ business plan_ blog graphics_ invitation_ event programme_ announcement &amp; more (11).png"  transform="matrix(0.3799 0 0 0.3656 11 5.0616)">
				</image>
			</g>
		</g>
	</g>
</g>
<g>
	
		<image style="overflow:visible;opacity:0.75;" width="185" height="194" xlink:href="10F8C74B.png"  transform="matrix(1 0 0 1 487.5584 55.5371)">
	</image>
	<g>
		<linearGradient id="SVGID_3_" gradientUnits="userSpaceOnUse" x1="493.2133" y1="144.891" x2="657.0863" y2="150.8469">
			<stop  offset="0" style="stop-color:#4D4D4D"/>
			<stop  offset="0.6167" style="stop-color:#BE2554"/>
			<stop  offset="1" style="stop-color:#FF0E58"/>
		</linearGradient>
		<path class="st0" d="M581,105.1c-6.2-3.5-23.3-12.2-42.6-9c-35.9,6-44.2,47.3-44.7,49.9c-6.9,37.7,25.6,84.5,70.2,88.7
			c22.1,2.1,51.6-5.9,58.9-21.3c10.3-21.9-30.9-45-19.2-61.7c9.3-13.2,38.6-4.1,50.4-18.5c11.8-14.5-3.5-41.5-24.1-56.1
			c-7.5-5.3-29.2-20.7-55.3-14.6c-18.1,4.2-31.8,17.3-36.2,33.7"/>
	</g>
</g>
<linearGradient id="SVGID_4_" gradientUnits="userSpaceOnUse" x1="523.9549" y1="700.5566" x2="668.698" y2="705.8173">
	<stop  offset="0" style="stop-color:#4D4D4D"/>
	<stop  offset="0.6167" style="stop-color:#BE2554"/>
	<stop  offset="1" style="stop-color:#FF0E58"/>
</linearGradient>
<path class="st1" d="M571.1,675.9c20.3-1.3,23.5-26.6,42.4-30.4c20.1-4,50.5,18,54.9,47.1c5.1,34-28.6,56.6-30.7,57.9
	c-35.6,23-93.3,10.1-109-22.4c-11-22.8-1.8-56.4,12.4-60.8C550.9,664.1,556.5,676.8,571.1,675.9z"/>
<linearGradient id="SVGID_5_" gradientUnits="userSpaceOnUse" x1="6.466" y1="321.9765" x2="77.7937" y2="324.5689">
	<stop  offset="0" style="stop-color:#4D4D4D"/>
	<stop  offset="0.6167" style="stop-color:#BE2554"/>
	<stop  offset="1" style="stop-color:#FF0E58"/>
</linearGradient>
<path class="st2" d="M16.6,306.1c5.6-19,18.3-30.9,31.4-29.9c17.4,1.3,30.8,25.2,29.8,49c-1,25.5-18,39.7-29.8,43.6
	c-14.2,4.7-34.7-0.9-40.5-21.4c-3.5-12.6,0-25.5,1.6-30.6"/>
</svg>
